<?xml version="1.0" encoding="utf-8"?>
<!-- Generator: Adobe Illustrator 20.1.0, SVG Export Plug-In . SVG Version: 6.00 Build 0)  -->
<svg version="1.1" id="Layer_1" xmlns="http://www.w3.org/2000/svg" xmlns:xlink="http://www.w3.org/1999/xlink" x="0px" y="0px"
	 viewBox="0 0 646.5 317.7" style="enable-background:new 0 0 646.5 317.7;" xml:space="preserve">
<style type="text/css">
	.st0{opacity:0.1;}
	.st1{fill:#8FA1B3;}
	.st2{opacity:0.1;fill:#95B5B4;}
	.st3{fill:#A3BE8C;}
	.st4{fill:#BE616A;}
	.st5{fill:#AF8EAD;}
	.st6{fill:#D1BFD0;}
	.st7{fill:#A0A0A0;}
	.st8{fill:#848C91;}
</style>
<g class="st0">
	<rect x="114.2" y="30.8" class="st1" width="156.3" height="23"/>
	<rect x="66.9" class="st1" width="156.3" height="23"/>
</g>
<rect x="191.7" y="196.1" class="st2" width="156.3" height="23"/>
<g class="st0">
	<g>
		<rect x="314.5" class="st3" width="135.8" height="23"/>
		<rect x="306.3" y="62" class="st3" width="135.8" height="23"/>
		<rect x="330.4" y="127.3" class="st3" width="243" height="22.9"/>
		<rect x="583.4" y="127.3" class="st3" width="63.1" height="22.9"/>
	</g>
	<rect x="358" y="196.1" class="st3" width="73.1" height="23"/>
</g>
<g class="st0">
	<rect x="361.8" y="30.8" class="st4" width="135.8" height="23"/>
	<rect x="84.2" y="61.8" class="st4" width="213.6" height="23.3"/>
	<rect x="85.8" y="95.2" class="st4" width="48.7" height="23.3"/>
	<rect x="125.9" y="127.3" class="st4" width="194.5" height="22.9"/>
	<rect x="164.2" y="258.7" class="st4" width="156.3" height="23"/>
</g>
<g class="st0">
	<rect y="-98.8" class="st5" width="38.7" height="23"/>
	<rect y="-62.8" class="st5" width="38.7" height="23"/>
	<rect x="47.7" y="30.8" class="st5" width="55.7" height="23"/>
	<rect class="st5" width="55.7" height="23"/>
	<rect x="233.2" class="st5" width="73.1" height="23"/>
	<rect x="227.6" y="95.5" class="st5" width="194.5" height="22.9"/>
	<rect x="125.1" y="196.1" class="st5" width="55.7" height="23"/>
	<rect x="47.7" y="258.7" class="st5" width="106.5" height="23"/>
</g>
<g class="st0">
	<rect x="47.7" y="-98.8" class="st6" width="284.5" height="23"/>
	<rect x="47.7" y="-62.8" class="st6" width="336.4" height="23"/>
	<rect x="280.5" y="30.8" class="st6" width="73.1" height="23"/>
	<rect x="144.5" y="95.4" class="st6" width="73.1" height="23"/>
	<rect x="330.5" y="258.7" class="st6" width="138.5" height="23"/>
</g>
<g class="st0">
	<rect x="125.1" y="163.7" class="st7" width="449.9" height="23"/>
	<rect x="504.6" y="30.8" class="st8" width="43.6" height="23"/>
	<rect x="47.7" y="223.6" class="st8" width="43.6" height="23"/>
</g>
<g class="st0">
	<rect x="429.7" y="95.5" class="st8" width="118.5" height="23"/>
	<rect y="294.7" class="st8" width="59.7" height="23"/>
	<rect x="459.1" class="st8" width="59.7" height="23"/>
</g>
</svg>
