<?xml version="1.0" encoding="utf-8"?>
<!-- Generator: Adobe Illustrator 20.1.0, SVG Export Plug-In . SVG Version: 6.00 Build 0)  -->
<svg version="1.1" id="Layer_1" xmlns="http://www.w3.org/2000/svg" xmlns:xlink="http://www.w3.org/1999/xlink" x="0px" y="0px"
	 viewBox="0 0 35.3 42.4" style="enable-background:new 0 0 35.3 42.4;" xml:space="preserve">
<style type="text/css">
	.st0{fill:#382767;}
</style>
<title>hackathonners-logo</title>
<g id="_Group_3">
	<path class="st0" d="M29,36.8h4.1c0.4,0,0.8,0.3,0.8,0.8v4.1c0,0.4-0.3,0.8-0.8,0.8H29c-0.4,0-0.8-0.3-0.8-0.8v-4.1
		C28.2,37.1,28.6,36.8,29,36.8z"/>
	<path class="st0" d="M29,29.7h4.1c0.4,0,0.8,0.3,0.8,0.8v4.1c0,0.4-0.3,0.8-0.8,0.8H29c-0.4,0-0.8-0.3-0.8-0.8v-4.1
		C28.2,30,28.6,29.7,29,29.7z"/>
	<path class="st0" d="M29,22.6h4.1c0.4,0,0.8,0.3,0.8,0.8v4.1c0,0.4-0.3,0.8-0.8,0.8H29c-0.4,0-0.8-0.3-0.8-0.8v-4.1
		C28.2,22.9,28.6,22.6,29,22.6z"/>
	<path class="st0" d="M30.4,0h4.1c0.4,0,0.8,0.3,0.8,0.8v4.1c0,0.4-0.3,0.8-0.8,0.8h-4.1c-0.4,0-0.8-0.3-0.8-0.8V0.8
		C29.7,0.3,30,0,30.4,0z"/>
	<path class="st0" d="M21.9,36.8H26c0.4,0,0.8,0.3,0.8,0.8v4.1c0,0.4-0.3,0.8-0.8,0.8h-4.1c-0.4,0-0.8-0.3-0.8-0.8v-4.1
		C21.2,37.1,21.5,36.8,21.9,36.8z"/>
	<path class="st0" d="M21.9,29.7H26c0.4,0,0.8,0.3,0.8,0.8v4.1c0,0.4-0.3,0.8-0.8,0.8h-4.1c-0.4,0-0.8-0.3-0.8-0.8v-4.1
		C21.2,30,21.5,29.7,21.9,29.7z"/>
	<path class="st0" d="M21.9,22.6H26c0.4,0,0.8,0.3,0.8,0.8v4.1c0,0.4-0.3,0.8-0.8,0.8h-4.1c-0.4,0-0.8-0.3-0.8-0.8v-4.1
		C21.2,22.9,21.5,22.6,21.9,22.6z"/>
	<path class="st0" d="M14.9,22.6H19c0.4,0,0.8,0.3,0.8,0.8v4.1c0,0.4-0.3,0.8-0.8,0.8h-4.1c-0.4,0-0.8-0.3-0.8-0.8v-4.1
		C14.1,22.9,14.5,22.6,14.9,22.6z"/>
	<path class="st0" d="M7.8,36.8h4.1c0.4,0,0.8,0.3,0.8,0.8v4.1c0,0.4-0.3,0.8-0.8,0.8H7.8c-0.4,0-0.8-0.3-0.8-0.8v-4.1
		C7.1,37.1,7.4,36.8,7.8,36.8z"/>
	<path class="st0" d="M7.8,29.7h4.1c0.4,0,0.8,0.3,0.8,0.8v4.1c0,0.4-0.3,0.8-0.8,0.8H7.8c-0.4,0-0.8-0.3-0.8-0.8v-4.1
		C7.1,30,7.4,29.7,7.8,29.7z"/>
	<path class="st0" d="M7.8,22.6h4.1c0.4,0,0.8,0.3,0.8,0.8v4.1c0,0.4-0.3,0.8-0.8,0.8H7.8c-0.4,0-0.8-0.3-0.8-0.8v-4.1
		C7.1,22.9,7.4,22.6,7.8,22.6z"/>
	<path class="st0" d="M0.8,36.8h4.1c0.4,0,0.8,0.3,0.8,0.8v4.1c0,0.4-0.3,0.8-0.8,0.8H0.8C0.3,42.4,0,42,0,41.6v-4.1
		C0,37.1,0.3,36.8,0.8,36.8z"/>
	<path class="st0" d="M0.8,29.7h4.1c0.4,0,0.8,0.3,0.8,0.8v4.1c0,0.4-0.3,0.8-0.8,0.8H0.8c-0.4,0-0.8-0.3-0.8-0.8v-4.1
		C0,30,0.3,29.7,0.8,29.7z"/>
	<path class="st0" d="M0.8,22.6h4.1c0.4,0,0.8,0.3,0.8,0.8v4.1c0,0.4-0.3,0.8-0.8,0.8H0.8c-0.4,0-0.8-0.3-0.8-0.8v-4.1
		C0,22.9,0.3,22.6,0.8,22.6z"/>
	<g id="_Group_4">
		<path class="st0" d="M29,15.5h4.1c0.4,0,0.8,0.3,0.8,0.8v4.1c0,0.4-0.3,0.8-0.8,0.8H29c-0.4,0-0.8-0.3-0.8-0.8v-4.1
			C28.2,15.9,28.6,15.5,29,15.5z"/>
		<path class="st0" d="M29,8.5h4.1c0.4,0,0.8,0.3,0.8,0.8v4.1c0,0.4-0.3,0.8-0.8,0.8H29c-0.4,0-0.8-0.3-0.8-0.8V9.2
			C28.2,8.8,28.6,8.5,29,8.5z"/>
		<path class="st0" d="M21.9,15.5H26c0.4,0,0.8,0.3,0.8,0.8v4.1c0,0.4-0.3,0.8-0.8,0.8h-4.1c-0.4,0-0.8-0.3-0.8-0.8v-4.1
			C21.2,15.9,21.5,15.5,21.9,15.5z"/>
		<path class="st0" d="M21.9,8.5H26c0.4,0,0.8,0.3,0.8,0.8v4.1c0,0.4-0.3,0.8-0.8,0.8h-4.1c-0.4,0-0.8-0.3-0.8-0.8V9.2
			C21.2,8.8,21.5,8.5,21.9,8.5z"/>
		<path class="st0" d="M21.9,1.4H26c0.4,0,0.8,0.3,0.8,0.8v4.1C26.8,6.7,26.5,7,26,7h-4.1c-0.4,0-0.8-0.3-0.8-0.8V2.2
			C21.2,1.8,21.5,1.4,21.9,1.4z"/>
		<path class="st0" d="M14.9,15.5H19c0.4,0,0.8,0.3,0.8,0.8v4.1c0,0.4-0.3,0.8-0.8,0.8h-4.1c-0.4,0-0.8-0.3-0.8-0.8v-4.1
			C14.1,15.9,14.5,15.5,14.9,15.5z"/>
		<path class="st0" d="M7.8,15.5h4.1c0.4,0,0.8,0.3,0.8,0.8v4.1c0,0.4-0.3,0.8-0.8,0.8H7.8c-0.4,0-0.8-0.3-0.8-0.8v-4.1
			C7.1,15.9,7.4,15.5,7.8,15.5z"/>
		<path class="st0" d="M7.8,8.5h4.1c0.4,0,0.8,0.3,0.8,0.8v4.1c0,0.4-0.3,0.8-0.8,0.8H7.8c-0.4,0-0.8-0.3-0.8-0.8V9.2
			C7.1,8.8,7.4,8.5,7.8,8.5z"/>
		<path class="st0" d="M7.8,1.4h4.1c0.4,0,0.8,0.3,0.8,0.8v4.1c0,0.4-0.3,0.8-0.8,0.8H7.8C7.4,7,7.1,6.7,7.1,6.3V2.2
			C7.1,1.8,7.4,1.4,7.8,1.4z"/>
		<path class="st0" d="M0.8,15.5h4.1c0.4,0,0.8,0.3,0.8,0.8v4.1c0,0.4-0.3,0.8-0.8,0.8H0.8c-0.4,0-0.8-0.3-0.8-0.8v-4.1
			C0,15.9,0.3,15.5,0.8,15.5z"/>
		<path class="st0" d="M0.8,8.5h4.1c0.4,0,0.8,0.3,0.8,0.8v4.1c0,0.4-0.3,0.8-0.8,0.8H0.8c-0.4,0-0.8-0.3-0.8-0.8V9.2
			C0,8.8,0.3,8.5,0.8,8.5z"/>
		<path class="st0" d="M0.8,1.4h4.1c0.4,0,0.8,0.3,0.8,0.8v4.1C5.6,6.7,5.3,7,4.9,7H0.8C0.3,7,0,6.7,0,6.3V2.2
			C0,1.8,0.3,1.4,0.8,1.4z"/>
	</g>
</g>
</svg>
